<svg width="16" height="17" viewBox="0 0 16 17" fill="none" xmlns="http://www.w3.org/2000/svg">
<path d="M16 16.1891H0V0.189087H16V16.1891Z" stroke="#E5E7EB"/>
<path d="M1 1.18909H15C15.5531 1.18909 16 1.63596 16 2.18909V3.18909C16 3.74221 15.5531 4.18909 15 4.18909H1C0.446875 4.18909 0 3.74221 0 3.18909V2.18909C0 1.63596 0.446875 1.18909 1 1.18909ZM1 5.18909H15V13.1891C15 14.2922 14.1031 15.1891 13 15.1891H3C1.89688 15.1891 1 14.2922 1 13.1891V5.18909ZM5 7.68909C5 7.96409 5.225 8.18909 5.5 8.18909H10.5C10.775 8.18909 11 7.96409 11 7.68909C11 7.41409 10.775 7.18909 10.5 7.18909H5.5C5.225 7.18909 5 7.41409 5 7.68909Z" fill="#082FB9"/>
</svg>
