<svg width="32" height="33" viewBox="0 0 32 33" fill="none" xmlns="http://www.w3.org/2000/svg">
<g id="arrows-triangle">
<path id="Icon" d="M17.3337 25.5224H23.0593C25.5462 25.5224 26.7897 25.5224 27.4957 25.0014C28.1112 24.5471 28.502 23.8503 28.5687 23.0882C28.6452 22.214 27.9968 21.153 26.7 19.0309L25.3707 16.8558M8.17385 14.3294L5.3007 19.0309C4.00389 21.153 3.35549 22.214 3.43196 23.0882C3.49862 23.8503 3.8894 24.5471 4.50495 25.0014C5.21098 25.5225 6.45444 25.5225 8.94137 25.5225H11.3337M22.5188 12.1891L19.641 7.47991C18.4373 5.51018 17.8354 4.52532 17.0606 4.18957C16.3841 3.89645 15.6165 3.89645 14.9401 4.18957C14.1652 4.52532 13.5634 5.51018 12.3597 7.47991L10.9999 9.70498M24.0003 6.85587L22.5362 12.32L17.0721 10.8559M2.66699 15.6532L8.13109 14.1891L9.5952 19.6532M20.667 29.5224L16.667 25.5224L20.667 21.5224" stroke="#082FB9" stroke-width="2.66667" stroke-linecap="round" stroke-linejoin="round"/>
</g>
</svg>
