<svg width="33" height="33" viewBox="0 0 33 33" fill="none" xmlns="http://www.w3.org/2000/svg">
<g id="coins-hand">
<path id="Icon" d="M18.7057 11.325C17.9424 11.8691 17.0084 12.1892 15.9997 12.1892C13.4223 12.1892 11.333 10.0998 11.333 7.5225C11.333 4.94517 13.4223 2.85583 15.9997 2.85583C17.6703 2.85583 19.1359 3.73372 19.9604 5.05336M8.66634 26.972H12.1467C12.6005 26.972 13.0515 27.026 13.4914 27.134L17.1689 28.0277C17.9668 28.2221 18.798 28.241 19.6043 28.0844L23.6703 27.2933C24.7444 27.0841 25.7325 26.5698 26.5068 25.8165L29.3835 23.0181C30.2051 22.2203 30.2051 20.9257 29.3835 20.1266C28.6439 19.4071 27.4726 19.3261 26.6359 19.9363L23.2831 22.3823C22.803 22.7333 22.2188 22.9223 21.6179 22.9223H18.3803L20.4411 22.9222C21.6026 22.9222 22.5435 22.0069 22.5435 20.8771V20.468C22.5435 19.5298 21.8871 18.7118 20.9518 18.485L17.7711 17.7115C17.2535 17.5859 16.7234 17.5225 16.1905 17.5225C14.9041 17.5225 12.5755 18.5876 12.5755 18.5876L8.66634 20.2223M27.333 8.85584C27.333 11.4332 25.2437 13.5225 22.6663 13.5225C20.089 13.5225 17.9997 11.4332 17.9997 8.85584C17.9997 6.27851 20.089 4.18917 22.6663 4.18917C25.2437 4.18917 27.333 6.27851 27.333 8.85584ZM3.33301 19.6558L3.33301 27.3892C3.33301 28.1359 3.33301 28.5093 3.47833 28.7945C3.60616 29.0454 3.81014 29.2493 4.06102 29.3772C4.34624 29.5225 4.7196 29.5225 5.46634 29.5225H6.53301C7.27974 29.5225 7.65311 29.5225 7.93833 29.3772C8.18921 29.2493 8.39319 29.0454 8.52102 28.7945C8.66634 28.5093 8.66634 28.1359 8.66634 27.3892V19.6558C8.66634 18.9091 8.66634 18.5357 8.52102 18.2505C8.39319 17.9996 8.18921 17.7957 7.93833 17.6678C7.65311 17.5225 7.27975 17.5225 6.53301 17.5225L5.46634 17.5225C4.7196 17.5225 4.34624 17.5225 4.06102 17.6678C3.81014 17.7957 3.60616 17.9996 3.47833 18.2505C3.33301 18.5357 3.33301 18.9091 3.33301 19.6558Z" stroke="#082FB9" stroke-width="2.66667" stroke-linecap="round" stroke-linejoin="round"/>
</g>
</svg>
