<svg width="32" height="33" viewBox="0 0 32 33" fill="none" xmlns="http://www.w3.org/2000/svg">
<g id="coins-swap-01">
<path id="Icon" d="M8.00033 8.18917L10.667 5.5225M10.667 5.5225L8.00033 2.85583M10.667 5.5225H8.00033C5.05481 5.5225 2.66699 7.91032 2.66699 10.8558M24.0003 24.1892L21.3337 26.8558M21.3337 26.8558L24.0003 29.5225M21.3337 26.8558H24.0003C26.9458 26.8558 29.3337 24.468 29.3337 21.5225M17.8899 18.0787C18.9329 18.5769 20.1007 18.8558 21.3337 18.8558C25.7519 18.8558 29.3337 15.2741 29.3337 10.8558C29.3337 6.43756 25.7519 2.85583 21.3337 2.85583C16.9154 2.85583 13.3337 6.43756 13.3337 10.8558C13.3337 12.0888 13.6126 13.2566 14.1108 14.2996M18.667 21.5225C18.667 25.9408 15.0853 29.5225 10.667 29.5225C6.24871 29.5225 2.66699 25.9408 2.66699 21.5225C2.66699 17.1042 6.24871 13.5225 10.667 13.5225C15.0853 13.5225 18.667 17.1042 18.667 21.5225Z" stroke="#082FB9" stroke-width="2.66667" stroke-linecap="round" stroke-linejoin="round"/>
</g>
</svg>
