<svg width="138" height="36" viewBox="0 0 138 36" fill="none" xmlns="http://www.w3.org/2000/svg">
<g id="Group 2367">
<g id="Group">
<path id="Vector" d="M44.9619 8.77749H52.7702C54.0597 8.77749 55.1897 8.9903 56.1651 9.4134C57.1405 9.8365 57.9081 10.4775 58.468 11.3338C59.0279 12.1901 59.3066 13.2643 59.3066 14.5513C59.3066 15.7396 59.0229 16.7656 58.4554 17.6296C57.8879 18.4935 57.0974 19.1547 56.0891 19.6133C55.0807 20.0719 53.9407 20.2999 52.6688 20.2999H48.5494V26.583H44.9619V8.77749ZM53.9407 17.3737C54.4828 17.1533 54.911 16.8239 55.2251 16.3805C55.5393 15.9397 55.6964 15.3621 55.6964 14.6502C55.6964 13.6317 55.3696 12.8792 54.7159 12.3852C54.0623 11.8937 53.1679 11.648 52.0329 11.648H48.5494V17.7005H52.0329C52.7626 17.7005 53.3985 17.5916 53.9407 17.3711V17.3737Z" fill="black"/>
<path id="Vector_2" d="M64.2925 8.77749V26.583H60.9609V8.77749H64.2925Z" fill="black"/>
<path id="Vector_3" d="M67.2944 26.023C66.4811 25.3795 66.0732 24.4877 66.0732 23.3527C66.0732 22.2177 66.4887 21.2373 67.3197 20.5684C68.1507 19.8996 69.3541 19.5626 70.9325 19.5626H72.5362C73.3495 19.5626 73.993 19.4942 74.4693 19.3599C74.943 19.2231 75.2927 19.0204 75.5131 18.7494C75.7335 18.4783 75.8424 18.1312 75.8424 17.7056C75.8424 17.1456 75.6043 16.6592 75.1305 16.2437C74.6542 15.8282 73.9018 15.6205 72.8656 15.6205C71.9332 15.6205 71.1783 15.846 70.6006 16.2944C70.023 16.7428 69.6759 17.4091 69.5568 18.2908H66.1999C66.3697 16.6465 67.0436 15.3621 68.2217 14.4373C69.3997 13.5126 70.9553 13.0515 72.8884 13.0515C74.8214 13.0515 76.3593 13.4721 77.4537 14.3107C78.5482 15.1492 79.0955 16.3071 79.0955 17.7816V26.583H75.8652L75.8399 23.3274H75.6879C75.4168 24.4117 74.8012 25.2934 73.8435 25.9724C72.8858 26.6514 71.7534 26.9908 70.4486 26.9908C69.1439 26.9908 68.1076 26.6691 67.2944 26.023ZM73.8308 24.204C74.4591 23.8392 74.9506 23.3527 75.3053 22.7422C75.6626 22.1316 75.8399 21.4881 75.8399 20.8091V19.5626H75.6879C75.5688 20.1732 75.242 20.6267 74.7074 20.9231C74.1729 21.2195 73.4229 21.369 72.4551 21.369H71.4367C70.7932 21.369 70.3042 21.521 69.9748 21.8276C69.6455 22.1341 69.4783 22.5395 69.4783 23.0487C69.4783 23.6086 69.6658 24.0317 70.0382 24.3205C70.4106 24.6094 70.9629 24.7538 71.6926 24.7538C72.4906 24.7538 73.2025 24.5713 73.8283 24.2065L73.8308 24.204Z" fill="black"/>
<path id="Vector_4" d="M83.8541 26.4537C82.8888 26.0965 82.1465 25.5645 81.6297 24.85C81.1129 24.1381 80.8443 23.2894 80.8291 22.3064H84.11C84.1429 23.0538 84.4444 23.6213 85.0119 24.0114C85.5794 24.4016 86.3724 24.5967 87.3909 24.5967C88.2219 24.5967 88.8755 24.4573 89.3493 24.1761C89.823 23.8974 90.0612 23.5022 90.0612 22.993C90.0612 22.5192 89.8332 22.1544 89.3746 21.8985C88.916 21.6452 88.2801 21.4399 87.4669 21.2879L85.891 21.0092C84.9587 20.8218 84.1531 20.6014 83.4741 20.348C82.7951 20.0947 82.2352 19.7045 81.7944 19.1775C81.3535 18.6531 81.1331 17.9564 81.1331 17.0924C81.1331 16.2792 81.3611 15.5673 81.8197 14.9567C82.2783 14.3461 82.9344 13.8749 83.7908 13.5455C84.6471 13.2137 85.6605 13.049 86.831 13.049C88.7311 13.049 90.2183 13.4645 91.295 14.2955C92.3717 15.1264 92.9114 16.2792 92.9114 17.7537H89.7572C89.7572 17.024 89.5064 16.4565 89.0073 16.0486C88.5056 15.6408 87.8241 15.4381 86.9602 15.4381C86.1469 15.4381 85.5186 15.5749 85.0778 15.846C84.637 16.117 84.4165 16.5072 84.4165 17.0164C84.4165 17.3382 84.5255 17.6068 84.7484 17.817C84.9688 18.0298 85.2703 18.1945 85.6504 18.3136C86.0329 18.4327 86.5117 18.5593 87.0869 18.6962L88.5614 18.9495C89.5114 19.1193 90.3247 19.3397 91.0037 19.6108C91.6826 19.8818 92.24 20.2771 92.6834 20.7939C93.1242 21.3107 93.3446 22.0024 93.3446 22.8663C93.3446 23.7302 93.1115 24.4725 92.6454 25.0933C92.1792 25.7114 91.4926 26.1827 90.5856 26.5044C89.6786 26.8262 88.5968 26.9883 87.3427 26.9883C85.9848 26.9883 84.8244 26.811 83.8592 26.4537H83.8541Z" fill="black"/>
<path id="Vector_5" d="M93.7725 13.4569H95.8575V10.5307L99.1131 9.51731V13.4569H102.878V15.542H99.1638V22.2558C99.1638 22.9677 99.3006 23.4693 99.5716 23.7556C99.8427 24.0444 100.317 24.1888 100.995 24.1888C101.505 24.1888 102.123 24.0951 102.853 23.9101V26.3271C101.938 26.6159 101.071 26.7603 100.258 26.7603C98.6824 26.7603 97.5524 26.4462 96.876 25.8204C96.197 25.1921 95.8575 24.1508 95.8575 22.6915V15.5445H93.7725V13.4594V13.4569Z" fill="black"/>
<path id="Vector_6" d="M105.168 11.0399C104.778 10.6498 104.583 10.1836 104.583 9.64143C104.583 9.09926 104.778 8.65843 105.168 8.26827C105.558 7.87811 106.032 7.68303 106.592 7.68303C107.152 7.68303 107.595 7.87305 107.978 8.25561C108.36 8.63816 108.55 9.09926 108.55 9.64143C108.55 10.1836 108.36 10.6726 107.978 11.0526C107.595 11.4326 107.134 11.6252 106.592 11.6252C106.05 11.6252 105.558 11.4301 105.168 11.0399ZM108.246 13.4569V26.5804H104.915V13.4569H108.246Z" fill="black"/>
<path id="Vector_7" d="M111.018 8.77749H114.298V14.8832C114.298 16.3425 114.266 17.8348 114.197 19.3599L114.349 19.4106C115.433 18.1895 116.315 17.2318 116.994 16.5376L120.224 13.4594H124.065L121.42 16.0284C120.64 16.7758 119.766 17.5789 118.801 18.4453C118.648 18.5644 118.486 18.6987 118.317 18.8532L118.342 18.9799C119.241 19.0306 119.953 19.2713 120.478 19.7045C121.002 20.1377 121.453 20.7762 121.826 21.6249L124.09 26.5855H120.632L119.158 23.2539C118.869 22.5927 118.527 22.0961 118.127 21.7668C117.729 21.4374 117.225 21.2702 116.614 21.2702H116.054L114.298 22.9499V26.588H111.018V8.77749Z" fill="black"/>
<path id="Vector_8" d="M127.628 26.4537C126.662 26.0965 125.92 25.5645 125.403 24.85C124.886 24.1381 124.618 23.2894 124.603 22.3064H127.883C127.916 23.0538 128.218 23.6213 128.785 24.0114C129.353 24.4016 130.146 24.5967 131.164 24.5967C131.995 24.5967 132.649 24.4573 133.123 24.1761C133.596 23.8974 133.835 23.5022 133.835 22.993C133.835 22.5192 133.607 22.1544 133.148 21.8985C132.689 21.6452 132.054 21.4399 131.24 21.2879L129.664 21.0092C128.732 20.8218 127.926 20.6014 127.248 20.348C126.569 20.0947 126.009 19.7045 125.568 19.1775C125.127 18.6531 124.907 17.9564 124.907 17.0924C124.907 16.2792 125.135 15.5673 125.593 14.9567C126.052 14.3461 126.708 13.8749 127.564 13.5455C128.421 13.2137 129.434 13.049 130.604 13.049C132.505 13.049 133.992 13.4645 135.068 14.2955C136.145 15.1264 136.685 16.2792 136.685 17.7537H133.531C133.531 17.024 133.28 16.4565 132.781 16.0486C132.279 15.6408 131.598 15.4381 130.734 15.4381C129.92 15.4381 129.292 15.5749 128.851 15.846C128.41 16.117 128.19 16.5072 128.19 17.0164C128.19 17.3382 128.299 17.6068 128.522 17.817C128.742 18.0298 129.044 18.1945 129.424 18.3136C129.806 18.4327 130.285 18.5593 130.86 18.6962L132.335 18.9495C133.285 19.1193 134.098 19.3397 134.777 19.6108C135.456 19.8818 136.013 20.2771 136.457 20.7939C136.898 21.3107 137.118 22.0024 137.118 22.8663C137.118 23.7302 136.885 24.4725 136.419 25.0933C135.953 25.7114 135.266 26.1827 134.359 26.5044C133.452 26.8262 132.37 26.9883 131.116 26.9883C129.758 26.9883 128.598 26.811 127.633 26.4537H127.628Z" fill="black"/>
</g>
<path id="Vector_9" d="M5.26146 5.27112C12.1121 -1.57948 23.1176 -1.75429 30.1835 4.75682L27.5436 7.40433C21.9294 2.33732 13.2623 2.50453 7.85576 7.91103C2.27445 13.4923 2.27445 22.5496 7.85576 28.1385C13.4371 33.7198 22.4944 33.7198 28.0833 28.1385C31.7239 24.4979 32.9907 19.3929 31.8886 14.7211L23.2848 23.3325C20.351 26.2587 15.6083 26.2511 12.6745 23.3325C9.74069 20.3987 9.74069 15.6484 12.6745 12.7146C15.4335 9.95557 19.7962 9.79596 22.7376 12.2155L20.1205 14.8326C18.6308 13.8268 16.5837 13.9838 15.2688 15.3089C13.769 16.8087 13.769 19.2409 15.2688 20.7407C16.7686 22.2405 19.1932 22.2405 20.693 20.7407L33.1579 8.27586C37.6371 15.2455 36.8289 24.6347 30.7308 30.7252C23.6978 37.7583 12.3021 37.7583 5.26906 30.7252C-1.75635 23.6922 -1.75635 12.2965 5.26906 5.26352L5.26146 5.27112Z" fill="black"/>
</g>
</svg>
