<svg width="20" height="17" viewBox="0 0 20 17" fill="none" xmlns="http://www.w3.org/2000/svg">
<g clip-path="url(#clip0_6210_530)">
<path d="M16.7188 1.47038C16.425 1.17663 16.425 0.701631 16.7188 0.411006C17.0125 0.120381 17.4875 0.117256 17.7781 0.411006L19.7781 2.41101C19.9188 2.55163 19.9969 2.74226 19.9969 2.94226C19.9969 3.14226 19.9188 3.33288 19.7781 3.47351L17.7781 5.47351C17.4844 5.76726 17.0094 5.76726 16.7188 5.47351C16.4281 5.17976 16.425 4.70476 16.7188 4.41413L17.4375 3.69538L12 3.68913C11.5844 3.68913 11.25 3.35476 11.25 2.93913C11.25 2.52351 11.5844 2.18913 12 2.18913H17.4406L16.7188 1.47038ZM3.28125 11.9704L2.5625 12.6891H8C8.41562 12.6891 8.75 13.0235 8.75 13.4391C8.75 13.8548 8.41562 14.1891 8 14.1891H2.55938L3.27813 14.9079C3.57188 15.2016 3.57188 15.6766 3.27813 15.9673C2.98438 16.2579 2.50938 16.261 2.21875 15.9673L0.21875 13.9704C0.078125 13.8298 0 13.6391 0 13.4391C0 13.2391 0.078125 13.0485 0.21875 12.9079L2.21875 10.9079C2.5125 10.6141 2.9875 10.6141 3.27813 10.9079C3.56875 11.2016 3.57188 11.6766 3.27813 11.9673L3.28125 11.9704ZM3 2.18913H10.5594C10.4437 2.41413 10.375 2.66726 10.375 2.93913C10.375 3.83601 11.1031 4.56413 12 4.56413H15.6687C15.5437 5.09538 15.6875 5.67351 16.1 6.08913C16.7344 6.72351 17.7625 6.72351 18.3969 6.08913L19 5.48601V12.1891C19 13.2923 18.1031 14.1891 17 14.1891H9.44063C9.55625 13.9641 9.625 13.711 9.625 13.4391C9.625 12.5423 8.89688 11.8141 8 11.8141H4.33125C4.45625 11.2829 4.3125 10.7048 3.9 10.2891C3.26562 9.65476 2.2375 9.65476 1.60312 10.2891L1 10.8923V4.18913C1 3.08601 1.89688 2.18913 3 2.18913ZM5 4.18913H3V6.18913C4.10313 6.18913 5 5.29226 5 4.18913ZM17 10.1891C15.8969 10.1891 15 11.086 15 12.1891H17V10.1891ZM10 11.1891C10.7956 11.1891 11.5587 10.8731 12.1213 10.3105C12.6839 9.74784 13 8.98478 13 8.18913C13 7.39348 12.6839 6.63042 12.1213 6.06781C11.5587 5.5052 10.7956 5.18913 10 5.18913C9.20435 5.18913 8.44129 5.5052 7.87868 6.06781C7.31607 6.63042 7 7.39348 7 8.18913C7 8.98478 7.31607 9.74784 7.87868 10.3105C8.44129 10.8731 9.20435 11.1891 10 11.1891Z" fill="white"/>
</g>
<defs>
<clipPath id="clip0_6210_530">
<path d="M0 0.189133H20V16.1891H0V0.189133Z" fill="white"/>
</clipPath>
</defs>
</svg>
