<svg width="24" height="25" viewBox="0 0 24 25" fill="none" xmlns="http://www.w3.org/2000/svg">
<path d="M16 3.65685C17.4817 4.3932 18.5 5.92223 18.5 7.68909C18.5 9.45595 17.4817 10.985 16 11.7213M18 16.9555C19.5115 17.6394 20.8725 18.7541 22 20.1891M2 20.1891C3.94649 17.7117 6.58918 16.1891 9.5 16.1891C12.4108 16.1891 15.0535 17.7117 17 20.1891M14 7.68909C14 10.1744 11.9853 12.1891 9.5 12.1891C7.01472 12.1891 5 10.1744 5 7.68909C5 5.20381 7.01472 3.18909 9.5 3.18909C11.9853 3.18909 14 5.20381 14 7.68909Z" stroke="black" stroke-width="2" stroke-linecap="round" stroke-linejoin="round"/>
</svg>
