<svg width="33" height="33" viewBox="0 0 33 33" fill="none" xmlns="http://www.w3.org/2000/svg">
<g id="wallet-04">
<path id="Icon" d="M27 12.8558V9.78913C27 8.29566 27 7.54892 26.7094 6.97849C26.4537 6.47672 26.0457 6.06878 25.544 5.81311C24.9735 5.52246 24.2268 5.52246 22.7333 5.52246H7.26667C5.77319 5.52246 5.02646 5.52246 4.45603 5.81311C3.95426 6.06877 3.54631 6.47672 3.29065 6.97849C3 7.54892 3 8.29565 3 9.78913V22.5891C3 24.0826 3 24.8293 3.29065 25.3998C3.54631 25.9015 3.95426 26.3095 4.45603 26.5651C5.02646 26.8558 5.77319 26.8558 7.26667 26.8558L22.7333 26.8558C24.2268 26.8558 24.9735 26.8558 25.544 26.5651C26.0457 26.3095 26.4537 25.9015 26.7094 25.3998C27 24.8293 27 24.0826 27 22.5891V19.5225M20.3333 16.1891C20.3333 15.5696 20.3333 15.2598 20.3846 15.0022C20.595 13.9444 21.4219 13.1175 22.4798 12.907C22.7374 12.8558 23.0471 12.8558 23.6667 12.8558H26.3333C26.9529 12.8558 27.2626 12.8558 27.5202 12.907C28.5781 13.1175 29.405 13.9444 29.6154 15.0022C29.6667 15.2598 29.6667 15.5696 29.6667 16.1891C29.6667 16.8087 29.6667 17.1184 29.6154 17.376C29.405 18.4339 28.5781 19.2608 27.5202 19.4712C27.2626 19.5225 26.9529 19.5225 26.3333 19.5225H23.6667C23.0471 19.5225 22.7374 19.5225 22.4798 19.4712C21.4219 19.2608 20.595 18.4339 20.3846 17.376C20.3333 17.1184 20.3333 16.8087 20.3333 16.1891Z" stroke="#082FB9" stroke-width="2.66667" stroke-linecap="round" stroke-linejoin="round"/>
</g>
</svg>
